<svg width="16" height="16" viewBox="0 0 16 16" fill="none" xmlns="http://www.w3.org/2000/svg">
<path d="M8.15368 3.77294C5.96372 3.77294 4.19728 5.54053 4.19728 7.73192C4.19728 9.92331 5.96372 11.6909 8.15368 11.6909C10.3436 11.6909 12.1101 9.92331 12.1101 7.73192C12.1101 5.54053 10.3436 3.77294 8.15368 3.77294ZM8.15368 10.3058C6.73847 10.3058 5.58151 9.1515 5.58151 7.73192C5.58151 6.31234 6.73503 5.15807 8.15368 5.15807C9.57234 5.15807 10.7259 6.31234 10.7259 7.73192C10.7259 9.1515 9.5689 10.3058 8.15368 10.3058ZM13.1947 3.611C13.1947 4.12439 12.7815 4.53442 12.2719 4.53442C11.7589 4.53442 11.3491 4.12095 11.3491 3.611C11.3491 3.10106 11.7623 2.68759 12.2719 2.68759C12.7815 2.68759 13.1947 3.10106 13.1947 3.611ZM15.8151 4.5482C15.7566 3.31124 15.4742 2.21554 14.5686 1.3128C13.6665 0.410056 12.5715 0.127519 11.3353 0.0654984C10.0613 -0.00685884 6.24263 -0.00685884 4.96859 0.0654984C3.73588 0.124073 2.64089 0.406611 1.73529 1.30935C0.829694 2.2121 0.550783 3.30779 0.488803 4.54475C0.416493 5.81962 0.416493 9.64077 0.488803 10.9156C0.54734 12.1526 0.829694 13.2483 1.73529 14.151C2.64089 15.0538 3.73243 15.3363 4.96859 15.3983C6.24263 15.4707 10.0613 15.4707 11.3353 15.3983C12.5715 15.3398 13.6665 15.0572 14.5686 14.151C15.4708 13.2483 15.7531 12.1526 15.8151 10.9156C15.8874 9.64077 15.8874 5.82307 15.8151 4.5482ZM14.1692 12.2835C13.9006 12.9589 13.3807 13.4791 12.7023 13.7514C11.6866 14.1545 9.27621 14.0615 8.15368 14.0615C7.03115 14.0615 4.61737 14.151 3.60503 13.7514C2.93013 13.4826 2.41019 12.9623 2.13816 12.2835C1.73529 11.2671 1.82826 8.85518 1.82826 7.73192C1.82826 6.60866 1.73874 4.19331 2.13816 3.1803C2.40674 2.50497 2.92669 1.98469 3.60503 1.71249C4.62081 1.30935 7.03115 1.40238 8.15368 1.40238C9.27621 1.40238 11.69 1.3128 12.7023 1.71249C13.3772 1.98124 13.8972 2.50152 14.1692 3.1803C14.5721 4.19675 14.4791 6.60866 14.4791 7.73192C14.4791 8.85518 14.5721 11.2705 14.1692 12.2835Z" fill="white"/>
</svg>
