<svg width="114" height="34" viewBox="0 0 114 34" fill="none" xmlns="http://www.w3.org/2000/svg">
<path d="M84.366 10.562V21.11H88.38L88.128 23H82.08V10.562H84.366ZM95.7599 10.562L95.5259 12.272H91.8719V15.836H95.0579V17.528H91.8719V21.272H95.7599V23H89.5859V10.562H95.7599ZM102.953 23L102.341 20.084H99.137L98.543 23H96.257L99.389 10.562H102.161L105.275 23H102.953ZM99.497 18.356H101.999L100.739 12.308L99.497 18.356ZM110.284 10.31C110.92 10.31 111.478 10.418 111.958 10.634C112.45 10.838 112.924 11.156 113.38 11.588L112.282 12.902C111.97 12.614 111.664 12.404 111.364 12.272C111.076 12.128 110.758 12.056 110.41 12.056C109.69 12.056 109.126 12.416 108.718 13.136C108.31 13.856 108.106 15.062 108.106 16.754C108.106 18.422 108.31 19.622 108.718 20.354C109.126 21.074 109.702 21.434 110.446 21.434C110.818 21.434 111.142 21.362 111.418 21.218C111.694 21.062 112.018 20.828 112.39 20.516L113.488 21.776C113.104 22.208 112.642 22.568 112.102 22.856C111.562 23.132 110.956 23.27 110.284 23.27C108.88 23.27 107.764 22.724 106.936 21.632C106.108 20.54 105.694 18.914 105.694 16.754C105.694 15.326 105.892 14.132 106.288 13.172C106.684 12.212 107.224 11.498 107.908 11.03C108.604 10.55 109.396 10.31 110.284 10.31Z" fill="#005D99"/>
<rect x="65" width="1" height="34" fill="#E5E4E1"/>
<path fill-rule="evenodd" clip-rule="evenodd" d="M20.1348 33.8284H21.6958V25.6096H20.1348V33.8284Z" fill="#005D99"/>
<path fill-rule="evenodd" clip-rule="evenodd" d="M26.33 33.8284L23.0869 25.6096H24.779L27.4883 32.4773L30.1982 25.6096H31.8903L28.6365 33.8284H26.33Z" fill="#005D99"/>
<path fill-rule="evenodd" clip-rule="evenodd" d="M34.1356 25.6096L30.8926 33.8284H32.5847L35.2939 26.9607L38.0038 33.8284H39.6953L36.4422 25.6096H34.1356Z" fill="#005D99"/>
<path fill-rule="evenodd" clip-rule="evenodd" d="M16.4185 31.9361V25.6096H17.9896V33.8284H16.1872L11.6238 27.8114V33.8284H10.0527V25.6096H11.6238L16.4185 31.9361Z" fill="#005D99"/>
<path fill-rule="evenodd" clip-rule="evenodd" d="M41.166 25.6096H42.8178V32.5769H46.9173V33.8183H41.166V25.6096Z" fill="#005D99"/>
<path fill-rule="evenodd" clip-rule="evenodd" d="M48.4287 33.8284H49.9998V25.6096H48.4287V33.8284Z" fill="#005D99"/>
<path fill-rule="evenodd" clip-rule="evenodd" d="M7.90721 29.9841V30.184L7.88704 30.3844L7.86625 30.5848L7.82654 30.7746L7.78621 30.9657L7.73579 31.1549L7.66521 31.3353L7.59463 31.5156L7.51459 31.696L7.43392 31.8658L7.33309 32.0262L7.23226 32.1865L7.12134 32.3469L7.00034 32.4972L6.87997 32.6369L6.74826 32.7772L6.60772 32.9068L6.46656 33.0271L6.31531 33.148L6.1546 33.2576L5.99327 33.3578L5.83194 33.4574L5.66052 33.5382L5.47965 33.6178L5.29815 33.6879L5.11665 33.7481L4.92507 33.8088L4.73412 33.8477L4.54253 33.8884L4.3415 33.9084L4.13983 33.9285H3.93879H3.73713L3.53546 33.9084L3.34451 33.8884L3.15293 33.8477L2.96134 33.8088L2.76976 33.7481L2.58889 33.6879L2.41747 33.6178L2.23598 33.5382L2.06456 33.4574L1.90386 33.3578L1.74315 33.2576L1.59127 33.148L1.44065 33.0271L1.29949 32.9068L1.15832 32.7772L1.02724 32.6369L0.906238 32.4972L0.785868 32.3469L0.674952 32.1865L0.574119 32.0262L0.483369 31.8658L0.392619 31.696L0.312583 31.5156L0.242 31.3353L0.1815 31.1549L0.131083 30.9657L0.0806665 30.7746L0.0504166 30.5848L0.0201666 30.3844L0.0100833 30.184L0 29.9841V25.6189H1.62152V29.9841V30.0938L1.63161 30.214L1.64169 30.3343L1.66186 30.4445L1.69274 30.5642L1.72236 30.675L1.76269 30.7746L1.80302 30.8849L1.85344 30.9851L1.90386 31.0853L1.96436 31.1855L2.02486 31.2851L2.08536 31.3753L2.15594 31.4655L2.23598 31.5457L2.30656 31.6359L2.39794 31.7054L2.47797 31.7856L2.56872 31.8558L2.65884 31.9159L2.74959 31.9854L2.85043 32.0362L2.95126 32.0863L3.05209 32.1364L3.15293 32.1865L3.26384 32.2166L3.37413 32.246L3.47496 32.2767L3.59596 32.2967L3.70688 32.3168L3.81779 32.3262H3.93879H4.05916L4.17008 32.3168L4.29108 32.2967L4.402 32.2767L4.523 32.246L4.63391 32.2166L4.7442 32.1865L4.84503 32.1364L4.94587 32.0863L5.05678 32.0362L5.14753 31.9854L5.24773 31.9159L5.33848 31.8558L5.42923 31.7856L5.51998 31.7054L5.60065 31.6359L5.68132 31.5457L5.75127 31.4655L5.82185 31.3753L5.89244 31.2851L5.95294 31.1855L6.00335 31.0853L6.06385 30.9851L6.10419 30.8849L6.1546 30.7746L6.18422 30.675L6.22519 30.5642L6.24472 30.4445L6.26489 30.3343L6.28569 30.214L6.29577 30.0938V29.9841V25.6189H7.90721V29.9841Z" fill="#005D99"/>
<path fill-rule="evenodd" clip-rule="evenodd" d="M46.2422 0L46.2227 1.10118L46.142 2.18231L46.0002 3.25405L45.8194 4.30512L45.5774 5.33614L45.2957 6.34712L44.9535 7.33868L44.5804 8.29955L44.1575 9.24038L43.6842 10.1618L43.1706 11.0525L42.6268 11.9138L42.0325 12.7444L41.4079 13.5455L40.7424 14.3159L40.0379 15.0576L39.3024 15.7579L38.5367 16.4287L37.7414 17.0589L36.9152 17.6502L36.0594 18.2008L35.1733 18.7113L34.2664 19.1717L33.3299 19.6026L32.3727 19.9828L31.3952 20.3135L30.3982 20.5935L29.3811 20.8334L28.3437 21.0239L27.2957 21.1535L26.2281 21.2337L25.1511 21.2638L24.0426 21.2337L22.9448 21.1535L21.8772 21.0239L20.8197 20.8334L19.7824 20.5935L18.7646 20.3135L17.7676 19.9828L16.7908 19.6026L15.8436 19.1717L14.9273 18.7113L14.0305 18.2008L13.1545 17.6502L12.3182 17.0589L11.5128 16.4287L10.737 15.7579L9.99147 15.0576L9.28627 14.3159L8.62204 13.5455L7.98742 12.7444L7.3925 11.9138L6.83918 11.0525L6.32556 10.1618L5.85164 9.24038L5.42878 8.29955L5.04561 7.33868L4.71349 6.34712L4.4217 5.33614L4.1797 4.30512L3.99821 3.25405L3.85767 2.18231L3.777 1.10118L3.75684 0H25.1511V6.14668L29.371 0H31.1337L25.1511 8.88021V10.822L32.6039 0H34.3773L25.1511 13.4553V15.4077L35.9384 0H37.6103L25.1511 18.0404V19.9928L39.0812 0H46.2422Z" fill="#005D99"/>
</svg>
