<svg width="16" height="16" viewBox="0 0 16 16" fill="none" xmlns="http://www.w3.org/2000/svg">
<path d="M13.1785 2.25234C11.7288 0.799219 9.79821 0 7.74654 0C3.51172 0 0.0657366 3.44598 0.0657366 7.6808C0.0657366 9.03359 0.418638 10.3552 1.08984 11.5212L0 15.5L4.07221 14.4309C5.19319 15.0433 6.45603 15.3651 7.74308 15.3651H7.74654C11.9779 15.3651 15.5 11.9191 15.5 7.68426C15.5 5.63259 14.6281 3.70547 13.1785 2.25234ZM7.74654 14.0711C6.59788 14.0711 5.47344 13.7632 4.49431 13.1819L4.2625 13.0435L1.84754 13.6767L2.49107 11.3205L2.33884 11.0783C1.69877 10.0612 1.36317 8.88828 1.36317 7.6808C1.36317 4.16217 4.2279 1.29743 7.75 1.29743C9.45569 1.29743 11.0576 1.96172 12.2616 3.1692C13.4656 4.37667 14.206 5.97857 14.2026 7.68426C14.2026 11.2064 11.2652 14.0711 7.74654 14.0711ZM11.2479 9.28962C11.0576 9.19275 10.1131 8.72913 9.93661 8.66685C9.76016 8.60112 9.63214 8.56998 9.50413 8.76373C9.37612 8.95748 9.00937 9.3865 8.8952 9.51797C8.78449 9.64598 8.67031 9.66328 8.48002 9.56641C7.35212 9.00245 6.61172 8.5596 5.86786 7.28292C5.67065 6.94386 6.06507 6.96808 6.43181 6.2346C6.49408 6.10658 6.46295 5.99587 6.41451 5.899C6.36607 5.80212 5.98203 4.85759 5.82288 4.47355C5.66719 4.09989 5.50804 4.15179 5.3904 4.14487C5.27969 4.13795 5.15167 4.13795 5.02366 4.13795C4.89565 4.13795 4.68806 4.18638 4.51161 4.37667C4.33516 4.57042 3.8404 5.03404 3.8404 5.97857C3.8404 6.9231 4.52891 7.8365 4.62232 7.96451C4.7192 8.09252 5.97511 10.03 7.90223 10.8638C9.12009 11.3897 9.59754 11.4347 10.2065 11.3448C10.5767 11.2894 11.3413 10.8811 11.5004 10.4314C11.6596 9.98158 11.6596 9.59754 11.6112 9.51797C11.5662 9.43147 11.4382 9.38304 11.2479 9.28962Z" fill="white"/>
</svg>
